<mxfile host="app.diagrams.net" modified="2024-01-31T05:40:28.883Z" agent="Mozilla/5.0 (Windows NT 10.0; Win64; x64) AppleWebKit/537.36 (KHTML, like Gecko) Chrome/120.0.0.0 Safari/537.36" etag="6Qz9jBun9fIbT_Tka89u" version="23.0.2" type="device">
  <diagram name="Page-1" id="04_TcckhkGlucEhA3a14">
    <mxGraphModel dx="538" dy="313" grid="1" gridSize="10" guides="1" tooltips="1" connect="1" arrows="1" fold="1" page="1" pageScale="1" pageWidth="850" pageHeight="1100" math="0" shadow="0">
      <root>
        <mxCell id="0" />
        <mxCell id="1" parent="0" />
        <mxCell id="-Is9OSPpFsRhnd4vKock-1" value="Get username and password from request body us and ps" style="rounded=0;whiteSpace=wrap;html=1;" vertex="1" parent="1">
          <mxGeometry x="310" width="200" height="100" as="geometry" />
        </mxCell>
        <mxCell id="-Is9OSPpFsRhnd4vKock-2" value="" style="endArrow=classic;html=1;rounded=0;exitX=0.5;exitY=1;exitDx=0;exitDy=0;" edge="1" parent="1" source="-Is9OSPpFsRhnd4vKock-1">
          <mxGeometry width="50" height="50" relative="1" as="geometry">
            <mxPoint x="400" y="320" as="sourcePoint" />
            <mxPoint x="410" y="210" as="targetPoint" />
          </mxGeometry>
        </mxCell>
        <mxCell id="-Is9OSPpFsRhnd4vKock-3" value="search the repository for a user with provided username" style="rounded=0;whiteSpace=wrap;html=1;" vertex="1" parent="1">
          <mxGeometry x="300" y="200" width="220" height="80" as="geometry" />
        </mxCell>
        <mxCell id="-Is9OSPpFsRhnd4vKock-4" value="" style="strokeWidth=2;html=1;shape=mxgraph.flowchart.annotation_2;align=left;labelPosition=right;pointerEvents=1;direction=south;" vertex="1" parent="1">
          <mxGeometry x="305" y="280" width="210" height="80" as="geometry" />
        </mxCell>
        <mxCell id="-Is9OSPpFsRhnd4vKock-5" value="Match the password" style="shape=parallelogram;html=1;strokeWidth=2;perimeter=parallelogramPerimeter;whiteSpace=wrap;rounded=1;arcSize=12;size=0.23;" vertex="1" parent="1">
          <mxGeometry x="250" y="360" width="100" height="60" as="geometry" />
        </mxCell>
        <mxCell id="-Is9OSPpFsRhnd4vKock-6" value="IF USER EXIST" style="text;html=1;align=center;verticalAlign=middle;resizable=0;points=[];autosize=1;strokeColor=none;fillColor=none;" vertex="1" parent="1">
          <mxGeometry x="285" y="288" width="110" height="30" as="geometry" />
        </mxCell>
        <mxCell id="-Is9OSPpFsRhnd4vKock-7" value="IF USER DOES NOT EXIST" style="text;html=1;align=center;verticalAlign=middle;resizable=0;points=[];autosize=1;strokeColor=none;fillColor=none;" vertex="1" parent="1">
          <mxGeometry x="420" y="288" width="170" height="30" as="geometry" />
        </mxCell>
        <mxCell id="-Is9OSPpFsRhnd4vKock-10" value="&lt;font style=&quot;font-size: 13px;&quot;&gt;send a response with user does not exist&lt;/font&gt;" style="shape=parallelogram;html=1;strokeWidth=2;perimeter=parallelogramPerimeter;whiteSpace=wrap;rounded=1;arcSize=12;size=0.23;" vertex="1" parent="1">
          <mxGeometry x="420" y="360" width="190" height="80" as="geometry" />
        </mxCell>
      </root>
    </mxGraphModel>
  </diagram>
</mxfile>
